<svg xmlns="http://www.w3.org/2000/svg" viewBox="0 0 59.77 71.49"><defs><style>.cls-1{fill:none;stroke:#000;stroke-miterlimit:10;stroke-width:2px;}</style></defs><g id="Layer_2" data-name="Layer 2"><g id="Layer_15" data-name="Layer 15"><path class="cls-1" d="M17.38,70.49H13.45a4.42,4.42,0,0,1-4.38-4.43v-4a4.41,4.41,0,0,1,4.38-4.43h3.93a4.42,4.42,0,0,1,4.38,4.43v4A4.42,4.42,0,0,1,17.38,70.49Z"/><path class="cls-1" d="M44.94,70.49H41a4.42,4.42,0,0,1-4.38-4.43v-4A4.41,4.41,0,0,1,41,57.65h3.93a4.42,4.42,0,0,1,4.38,4.43v4A4.42,4.42,0,0,1,44.94,70.49Z"/><path class="cls-1" d="M47.21,13.84H12.56A4.42,4.42,0,0,1,8.18,9.41v-4A4.42,4.42,0,0,1,12.56,1H47.21a4.42,4.42,0,0,1,4.38,4.43v4A4.42,4.42,0,0,1,47.21,13.84Z"/><path class="cls-1" d="M18.07,48.8H14.14a4.42,4.42,0,0,1-4.38-4.43V27.69a4.42,4.42,0,0,1,4.38-4.43h3.93a4.42,4.42,0,0,1,4.38,4.43V44.37A4.42,4.42,0,0,1,18.07,48.8Z"/><path class="cls-1" d="M45.63,48.8H41.7a4.42,4.42,0,0,1-4.38-4.43V27.69a4.42,4.42,0,0,1,4.38-4.43h3.93A4.42,4.42,0,0,1,50,27.69V44.37A4.42,4.42,0,0,1,45.63,48.8Z"/><path class="cls-1" d="M54.39,52.73h-49A4.42,4.42,0,0,1,1,48.3V23.46A4.42,4.42,0,0,1,5.38,19h49a4.42,4.42,0,0,1,4.38,4.43V48.3A4.42,4.42,0,0,1,54.39,52.73Z"/></g></g></svg>